<svg xmlns="http://www.w3.org/2000/svg" xmlns:xlink="http://www.w3.org/1999/xlink" id="Capa_1" x="0px" y="0px" viewBox="0 0 466.059 466.059" style="enable-background:new 0 0 466.059 466.059;" xml:space="preserve"><g>	<g>		<path style="fill:#231F20;" d="M407.934,40.568H306.93V25.904C306.93,11.611,295.301,0,281.026,0h-95.975   c-14.293,0-25.904,11.611-25.904,25.904v14.664H58.125c-23.557,0-42.738,19.163-42.738,42.738v235.341   c0,23.575,19.181,42.738,42.738,42.738h349.809c23.557,0,42.738-19.163,42.738-42.738V83.305   C450.672,59.731,431.509,40.568,407.934,40.568z M180.322,25.904c0-2.576,2.17-4.729,4.729-4.729h95.975   c2.576,0,4.729,2.17,4.729,4.729v14.664H180.322V25.904z M429.497,318.629c0,11.893-9.67,21.581-21.563,21.581v0.018H58.125   c-11.893,0-21.563-9.688-21.563-21.581V83.305c0-11.893,9.67-21.581,21.563-21.581h349.809c11.893,0,21.563,9.688,21.563,21.581   V318.629z"></path>		<path style="fill:#231F20;" d="M414.833,381.748H66.33c-5.858,0-10.587,4.747-10.587,10.587s4.729,10.587,10.587,10.587h31.851   l-29.08,46.991c-3.088,4.958-1.553,11.487,3.423,14.558c1.729,1.094,3.653,1.588,5.558,1.588c3.547,0,7.005-1.765,8.999-5.011   l35.98-58.125h243.087l35.98,58.125c2.012,3.229,5.47,5.011,9.017,5.011c1.906,0,3.829-0.494,5.541-1.588   c4.958-3.07,6.494-9.599,3.423-14.558l-29.08-46.991h23.786c5.858,0,10.605-4.729,10.587-10.587   C425.421,386.494,420.674,381.748,414.833,381.748z"></path>		<path style="fill:#231F20;" d="M386.918,116.55h-72.771c-5.841,0-10.587,4.747-10.587,10.587c0,5.841,4.729,10.587,10.587,10.587   h46.973l-111.397,99.857l-60.701-64.654c-1.941-2.065-4.623-3.264-7.446-3.335c-2.717,0.212-5.558,0.988-7.605,2.947   l-83.658,80.306c-1.165-0.229-2.241-0.723-3.476-0.723c-10.358,0-18.757,8.576-18.757,19.163c0,10.587,8.399,19.163,18.757,19.163   s18.757-8.576,18.757-19.163c0-1.112-0.441-2.065-0.618-3.123l75.93-72.894l60.454,64.389c3.953,4.182,10.517,4.464,14.787,0.635   l120.009-107.568c0.071-0.053,0.088-0.141,0.159-0.212v43.638c0,5.841,4.729,10.587,10.587,10.587   c5.841,0,10.587-4.729,10.605-10.605v-68.995C397.505,121.279,392.759,116.55,386.918,116.55z"></path>	</g>	<g>	</g>	<g>	</g>	<g>	</g>	<g>	</g>	<g>	</g>	<g>	</g>	<g>	</g>	<g>	</g>	<g>	</g>	<g>	</g>	<g>	</g>	<g>	</g>	<g>	</g>	<g>	</g>	<g>	</g></g><g></g><g></g><g></g><g></g><g></g><g></g><g></g><g></g><g></g><g></g><g></g><g></g><g></g><g></g><g></g></svg>